<?xml version="1.0" encoding="utf-8"?>
<!-- Generator: Adobe Illustrator 27.5.0, SVG Export Plug-In . SVG Version: 6.00 Build 0)  -->
<svg version="1.1" xmlns="http://www.w3.org/2000/svg" xmlns:xlink="http://www.w3.org/1999/xlink" x="0px" y="0px"
	 viewBox="0 0 500 500" style="enable-background:new 0 0 500 500;" xml:space="preserve">
<g id="BACKGROUND">
	<linearGradient id="SVGID_1_" gradientUnits="userSpaceOnUse" x1="76.8805" y1="76.8805" x2="627.4955" y2="627.4955">
		<stop  offset="0" style="stop-color:#0A122B"/>
		<stop  offset="0.5384" style="stop-color:#121B42"/>
		<stop  offset="1" style="stop-color:#1B2559"/>
	</linearGradient>
	<rect style="fill:url(#SVGID_1_);" width="500" height="500"/>
</g>
<g id="OBJECTS">
	<g>
		
			<linearGradient id="SVGID_00000016049465929779984820000012437447223695665572_" gradientUnits="userSpaceOnUse" x1="134.08" y1="196.4321" x2="349.5181" y2="427.042">
			<stop  offset="0" style="stop-color:#1BC8ED"/>
			<stop  offset="1" style="stop-color:#0040C1"/>
		</linearGradient>
		<path style="fill:url(#SVGID_00000016049465929779984820000012437447223695665572_);" d="M348.252,322.572
			c-22.248,28.921-57.166,47.612-96.392,47.612c-29.978,0-57.436-10.923-78.653-28.974c-1.441,0.184-2.879,0.383-4.315,0.597
			c22.074,19.676,51.138,31.664,82.968,31.664c41.33,0,78.01-20.199,100.754-51.224
			C351.158,322.332,349.703,322.425,348.252,322.572z"/>
		<g>
			<path style="fill:#FFFFFF;" d="M397.204,187.443l-152.175,24.316l77.585-6.767c-10.886,3.422-18.68,13.697-18.429,25.68
				c0.027,1.314,0.154,2.602,0.366,3.86c1.564-11.885,11.608-21.174,23.961-21.433c13.633-0.286,24.916,10.535,25.202,24.168
				c0.049,2.316-0.23,4.562-0.783,6.7c2.587-4.177,4.042-9.121,3.932-14.399c-0.12-5.73-2.071-10.985-5.269-15.242l19.916-7.966
				l-25.307,2.609c-3.648-2.706-8.008-4.5-12.744-5.025l47.977-4.632l-9.153,29.57L397.204,187.443z"/>
			
				<linearGradient id="SVGID_00000054263367417486115650000000229182619780757936_" gradientUnits="userSpaceOnUse" x1="112.0905" y1="216.9744" x2="327.5292" y2="447.585">
				<stop  offset="0" style="stop-color:#1BC8ED"/>
				<stop  offset="1" style="stop-color:#0040C1"/>
			</linearGradient>
			<path style="fill:url(#SVGID_00000054263367417486115650000000229182619780757936_);" d="M151.468,239.907
				c-10.857,0.227-19.475,9.214-19.247,20.071c0.227,10.858,9.213,19.475,20.071,19.247c0.638-0.013,1.266-0.063,1.888-0.135
				c-9.147-0.065-16.64-7.385-16.833-16.589c-0.196-9.366,7.237-17.118,16.603-17.314c9.366-0.196,17.118,7.238,17.314,16.604
				c0.009,0.445-0.014,0.882-0.039,1.318c0.233-1.28,0.343-2.603,0.314-3.955C171.312,248.297,162.326,239.679,151.468,239.907z"/>
			
				<linearGradient id="SVGID_00000005969147737121432040000009270638875465614238_" gradientUnits="userSpaceOnUse" x1="218.1701" y1="117.8737" x2="433.6087" y2="348.4842">
				<stop  offset="0" style="stop-color:#1BC8ED"/>
				<stop  offset="1" style="stop-color:#0040C1"/>
			</linearGradient>
			<path style="fill:url(#SVGID_00000005969147737121432040000009270638875465614238_);" d="M328.726,218.349
				c-10.094,0.211-18.105,8.565-17.893,18.659c0.211,10.094,8.565,18.105,18.659,17.894c0.593-0.013,1.177-0.058,1.755-0.126
				c-8.504-0.061-15.469-6.866-15.648-15.422c-0.182-8.707,6.728-15.913,15.435-16.096c8.707-0.182,15.914,6.728,16.096,15.436
				c0.009,0.413-0.013,0.82-0.036,1.226c0.217-1.19,0.319-2.42,0.292-3.677C347.174,226.149,338.82,218.137,328.726,218.349z"/>
			<path style="fill:#FFFFFF;" d="M189.123,259.187l119.681-18.705l-122.222,10.375C187.776,253.466,188.641,256.26,189.123,259.187
				z"/>
			
				<linearGradient id="SVGID_00000003096136645463559780000013328448613823179660_" gradientUnits="userSpaceOnUse" x1="144.4855" y1="186.7108" x2="359.9236" y2="417.3207">
				<stop  offset="0" style="stop-color:#1BC8ED"/>
				<stop  offset="1" style="stop-color:#0040C1"/>
			</linearGradient>
			<polygon style="fill:url(#SVGID_00000003096136645463559780000013328448613823179660_);" points="163.164,201.407 
				164.908,204.96 168.461,206.704 164.908,208.449 163.164,212.002 161.419,208.449 157.867,206.704 161.419,204.96 			"/>
			<path style="fill:#FFFFFF;" d="M166.828,221.958l6.177,6.374c-2.062-0.983-11.251-6.302-13.532-6.837
				c9.869-3.111,27.54-8.199,34.177-9.711c14.699-3.347,15.111-12.772,15.111-12.772l-13.207,3.642
				c-0.754,0.208-1.444,0.599-2.01,1.139l-4.364,4.163l-8.59,2.004l36.009-31.063l36.216-6.21l-17.286,28.126l64.994-14.863
				l-52.244,5.943l12.391-19.729l36.993-6.193l23.46,20.301l-118.858,28.383l155.175-27.078l-26.554-3.691l-28.47-24.175
				l-88.952,13.021l-42.848,41.666l-85.069,19.678l11.546,26.349l-2.106-13.855l26.811-9.32l-27.6,4.134l-0.605-3.978l35.892-7.627
				c-6.002,5.923-9.657,14.2-9.466,23.296c0.055,2.637,0.432,5.191,1.089,7.628c2.922-15.739,16.558-27.806,33.192-28.154
				c11.867-0.249,22.541,4.888,28.937,13.884l115.905-17.687l-117.485,6.659l122.824-22.266L166.828,221.958z M185.985,231.864
				l-1.391-2.833l-2.833-1.391l2.833-1.391l1.391-2.832l1.391,2.832l2.832,1.391l-2.832,1.391L185.985,231.864z"/>
			<polygon style="fill:#FFFFFF;" points="179.597,171.969 182.336,177.547 187.915,180.287 182.336,183.026 179.597,188.605 
				176.857,183.026 171.279,180.287 176.857,177.547 			"/>
		</g>
		<g>
			
				<linearGradient id="SVGID_00000098907915790568110860000013572019510130042801_" gradientUnits="userSpaceOnUse" x1="192.5238" y1="141.833" x2="407.9619" y2="372.443">
				<stop  offset="0" style="stop-color:#1BC8ED"/>
				<stop  offset="1" style="stop-color:#0040C1"/>
			</linearGradient>
			<path style="fill:url(#SVGID_00000098907915790568110860000013572019510130042801_);" d="M359.126,184.696
				c-21.823-36.511-61.726-61.025-107.266-61.025c-57.574,0-106.166,39.162-120.559,92.244c1.245-0.405,2.493-0.8,3.743-1.187
				c14.695-50.643,61.499-87.77,116.816-87.77c44.077,0,82.733,23.583,104.063,58.782C356.98,185.35,358.05,185.012,359.126,184.696
				z"/>
			<path style="fill:#FFFFFF;" d="M371.368,182.259c2.046-0.273,4.087-0.564,6.131-0.846
				c-23.668-46.634-72.075-78.682-127.853-78.682c-70.887,0-129.908,51.739-141.308,119.434c3.149-1.019,6.305-2.016,9.463-3.005
				c12.488-61.353,66.858-107.666,131.844-107.666c51.3,0,95.958,28.876,118.647,71.213
				C369.313,182.547,370.337,182.397,371.368,182.259z"/>
		</g>
		<g>
			<path style="fill:#FFFFFF;" d="M372.622,234.682c0.547,4.287,0.902,8.633,0.975,13.05c1.088-0.309,2.179-0.6,3.276-0.867
				c-0.125-5.441-0.64-10.784-1.451-16.031C374.537,232.17,373.628,233.482,372.622,234.682z"/>
			<path style="fill:#FFFFFF;" d="M388.865,212.096c-1.968,3.526-4.288,6.824-6.835,9.971c1.37,7.574,2.114,15.362,2.152,23.316
				c2.9-0.786,5.81-1.534,8.725-2.262C392.691,232.454,391.299,222.074,388.865,212.096z"/>
		</g>
		<path style="fill:#FFFFFF;" d="M120.096,282.249c-0.989-3.533-1.845-7.12-2.546-10.763h-8.917
			c0.706,3.923,1.585,7.786,2.607,11.592C114.19,282.738,117.142,282.465,120.096,282.249z"/>
		<path style="fill:#FFFFFF;" d="M360.56,322.104c-24.278,35.289-64.936,58.476-110.914,58.476
			c-35.883,0-68.529-14.121-92.676-37.097c-3.6,0.418-7.177,0.972-10.732,1.667c26.1,27.22,62.808,44.194,103.408,44.194
			c51.728,0,97.139-27.551,122.34-68.747C368.174,321.072,364.365,321.577,360.56,322.104z"/>
		
			<linearGradient id="SVGID_00000001632616961957095000000005846673791921884807_" gradientUnits="userSpaceOnUse" x1="158.3853" y1="173.7254" x2="373.8238" y2="404.3358">
			<stop  offset="0" style="stop-color:#1BC8ED"/>
			<stop  offset="1" style="stop-color:#0040C1"/>
		</linearGradient>
		<polygon style="fill:url(#SVGID_00000001632616961957095000000005846673791921884807_);" points="98.692,291.549 414.456,249.368 
			398.618,309.537 130.373,342.201 		"/>
	</g>
</g>
<g id="TEXT">
	<g>
		
			<text transform="matrix(1 -0.1228 0 1 208.4003 350.2259)" style="fill:#FFFFFF; font-family:'Montserrat-Black'; font-size:12.6626px;">CAR DETAILING</text>
	</g>
	<g>
		<text transform="matrix(1 -0.1231 0 1 144.8977 327.5121)" style="font-family:'FugazOne-Regular'; font-size:47.5669px;">COOL CAR</text>
		<g>
			
				<linearGradient id="SVGID_00000042718210081980898740000011064332211165006740_" gradientUnits="userSpaceOnUse" x1="247.6193" y1="286.9069" x2="250.3221" y2="310.0734">
				<stop  offset="0" style="stop-color:#FFFFFF"/>
				<stop  offset="0.406" style="stop-color:#FFFFFF"/>
				<stop  offset="0.4728" style="stop-color:#FFFFFF"/>
				<stop  offset="0.5288" style="stop-color:#FDFDFD"/>
				<stop  offset="0.549" style="stop-color:#F6F6F6"/>
				<stop  offset="0.5634" style="stop-color:#EBEBEB"/>
				<stop  offset="0.5743" style="stop-color:#DBDBDB"/>
			</linearGradient>
			<path style="fill:url(#SVGID_00000042718210081980898740000011064332211165006740_);" d="M170.918,323.263
				c-1.522,0.948-4.567,2.084-8.467,2.563c-9.039,1.113-15.841-3.757-15.841-14.269c0-10.035,6.802-17.674,16.745-18.897
				c3.996-0.492,6.517,0.054,7.611,0.489l-1,3.5c-1.569-0.567-3.805-0.862-6.469-0.534c-7.516,0.925-12.51,6.343-12.51,14.761
				c0,7.848,4.519,12.334,12.32,11.374c2.521-0.311,5.09-1.15,6.755-2.164L170.918,323.263z"/>
			
				<linearGradient id="SVGID_00000175289582895361354140000013660723564182067091_" gradientUnits="userSpaceOnUse" x1="247.6193" y1="286.9069" x2="250.3221" y2="310.0734">
				<stop  offset="0" style="stop-color:#FFFFFF"/>
				<stop  offset="0.406" style="stop-color:#FFFFFF"/>
				<stop  offset="0.4728" style="stop-color:#FFFFFF"/>
				<stop  offset="0.5288" style="stop-color:#FDFDFD"/>
				<stop  offset="0.549" style="stop-color:#F6F6F6"/>
				<stop  offset="0.5634" style="stop-color:#EBEBEB"/>
				<stop  offset="0.5743" style="stop-color:#DBDBDB"/>
			</linearGradient>
			<path style="fill:url(#SVGID_00000175289582895361354140000013660723564182067091_);" d="M203.5,303.938
				c0,11.034-6.707,17.71-14.889,18.717c-8.467,1.042-14.413-4.789-14.413-14.492c0-10.178,6.327-17.616,14.889-18.67
				C197.84,288.415,203.5,294.425,203.5,303.938z M178.623,307.523c0,6.849,3.71,12.528,10.227,11.726
				c6.564-0.808,10.275-7.305,10.275-14.582c0-6.373-3.33-12.622-10.228-11.773C182.047,293.736,178.623,300.484,178.623,307.523z"
				/>
			
				<linearGradient id="SVGID_00000124858751825264596060000005366630924500254895_" gradientUnits="userSpaceOnUse" x1="247.6193" y1="286.9069" x2="250.3221" y2="310.0734">
				<stop  offset="0" style="stop-color:#FFFFFF"/>
				<stop  offset="0.406" style="stop-color:#FFFFFF"/>
				<stop  offset="0.4728" style="stop-color:#FFFFFF"/>
				<stop  offset="0.5288" style="stop-color:#FDFDFD"/>
				<stop  offset="0.549" style="stop-color:#F6F6F6"/>
				<stop  offset="0.5634" style="stop-color:#EBEBEB"/>
				<stop  offset="0.5743" style="stop-color:#DBDBDB"/>
			</linearGradient>
			<path style="fill:url(#SVGID_00000124858751825264596060000005366630924500254895_);" d="M236.275,299.903
				c0,11.034-6.708,17.71-14.89,18.718c-8.466,1.042-14.413-4.79-14.413-14.493c0-10.178,6.326-17.615,14.888-18.669
				C230.614,284.381,236.275,290.391,236.275,299.903z M211.396,303.489c0,6.849,3.71,12.527,10.228,11.726
				c6.565-0.809,10.275-7.305,10.275-14.582c0-6.373-3.33-12.623-10.228-11.773C214.821,289.702,211.396,296.45,211.396,303.489z"/>
			
				<linearGradient id="SVGID_00000106119260807426752940000006834086841777261726_" gradientUnits="userSpaceOnUse" x1="247.6193" y1="286.9069" x2="250.3221" y2="310.0734">
				<stop  offset="0" style="stop-color:#FFFFFF"/>
				<stop  offset="0.406" style="stop-color:#FFFFFF"/>
				<stop  offset="0.4728" style="stop-color:#FFFFFF"/>
				<stop  offset="0.5288" style="stop-color:#FDFDFD"/>
				<stop  offset="0.549" style="stop-color:#F6F6F6"/>
				<stop  offset="0.5634" style="stop-color:#EBEBEB"/>
				<stop  offset="0.5743" style="stop-color:#DBDBDB"/>
			</linearGradient>
			<path style="fill:url(#SVGID_00000106119260807426752940000006834086841777261726_);" d="M241.648,283.547l4.139-0.51v28.585
				l13.699-1.687v3.473l-17.838,2.195V283.547z"/>
			
				<linearGradient id="SVGID_00000066509197115280359210000016415692029334581646_" gradientUnits="userSpaceOnUse" x1="247.6193" y1="286.9069" x2="250.3221" y2="310.0734">
				<stop  offset="0" style="stop-color:#FFFFFF"/>
				<stop  offset="0.406" style="stop-color:#FFFFFF"/>
				<stop  offset="0.4728" style="stop-color:#FFFFFF"/>
				<stop  offset="0.5288" style="stop-color:#FDFDFD"/>
				<stop  offset="0.549" style="stop-color:#F6F6F6"/>
				<stop  offset="0.5634" style="stop-color:#EBEBEB"/>
				<stop  offset="0.5743" style="stop-color:#DBDBDB"/>
			</linearGradient>
			<path style="fill:url(#SVGID_00000066509197115280359210000016415692029334581646_);" d="M296.588,307.795
				c-1.522,0.948-4.566,2.084-8.467,2.564c-9.038,1.112-15.841-3.758-15.841-14.27c0-10.035,6.803-17.674,16.744-18.897
				c3.996-0.492,6.517,0.054,7.611,0.489l-0.999,3.5c-1.569-0.567-3.806-0.862-6.469-0.534c-7.517,0.925-12.512,6.343-12.512,14.761
				c0,7.848,4.519,12.334,12.32,11.374c2.521-0.311,5.091-1.15,6.755-2.164L296.588,307.795z"/>
			
				<linearGradient id="SVGID_00000106851609879272549270000009549426011751763635_" gradientUnits="userSpaceOnUse" x1="247.6193" y1="286.9069" x2="250.3221" y2="310.0734">
				<stop  offset="0" style="stop-color:#FFFFFF"/>
				<stop  offset="0.406" style="stop-color:#FFFFFF"/>
				<stop  offset="0.4728" style="stop-color:#FFFFFF"/>
				<stop  offset="0.5288" style="stop-color:#FDFDFD"/>
				<stop  offset="0.549" style="stop-color:#F6F6F6"/>
				<stop  offset="0.5634" style="stop-color:#EBEBEB"/>
				<stop  offset="0.5743" style="stop-color:#DBDBDB"/>
			</linearGradient>
			<path style="fill:url(#SVGID_00000106851609879272549270000009549426011751763635_);" d="M306.956,297.483l-3.329,10.492
				l-4.281,0.527l10.894-33.397l4.994-0.615l10.941,30.71l-4.424,0.545l-3.426-9.661L306.956,297.483z M317.47,292.953l-3.14-8.84
				c-0.714-2.005-1.189-3.849-1.665-5.646l-0.095,0.012c-0.477,1.961-1,3.976-1.618,6.002l-3.139,9.661L317.47,292.953z"/>
			
				<linearGradient id="SVGID_00000008846200116719273350000010124136188546949275_" gradientUnits="userSpaceOnUse" x1="247.6193" y1="286.9069" x2="250.3221" y2="310.0734">
				<stop  offset="0" style="stop-color:#FFFFFF"/>
				<stop  offset="0.406" style="stop-color:#FFFFFF"/>
				<stop  offset="0.4728" style="stop-color:#FFFFFF"/>
				<stop  offset="0.5288" style="stop-color:#FDFDFD"/>
				<stop  offset="0.549" style="stop-color:#F6F6F6"/>
				<stop  offset="0.5634" style="stop-color:#EBEBEB"/>
				<stop  offset="0.5743" style="stop-color:#DBDBDB"/>
			</linearGradient>
			<path style="fill:url(#SVGID_00000008846200116719273350000010124136188546949275_);" d="M330.882,272.991
				c2.093-0.686,5.09-1.291,7.944-1.643c4.424-0.545,7.278-0.087,9.275,1.474c1.618,1.228,2.521,3.305,2.521,5.777
				c0,4.233-2.664,7.367-6.042,8.924v0.143c2.475,0.553,3.949,2.654,4.71,5.89c1.047,4.342,1.808,7.34,2.474,8.494l-4.281,0.527
				c-0.523-0.839-1.236-3.51-2.141-7.395c-0.951-4.307-2.664-5.76-6.422-5.439l-3.9,0.479v13.888l-4.139,0.51V272.991z
				 M335.02,287.083l4.234-0.521c4.423-0.545,7.23-3.315,7.23-6.978c0-4.138-2.997-5.577-7.374-5.085
				c-1.998,0.246-3.425,0.611-4.091,0.883V287.083z"/>
		</g>
	</g>
</g>
</svg>
